<svg width="447" height="675" fill="none" xmlns="http://www.w3.org/2000/svg"><path d="M357 160v103l-89-51 89-52z" fill="#02D4D8"/><path d="M357 263l-89 51V212l89 51zm.007 0L357 366l-89-52 89.007-51z" fill="#0C78A3"/><path d="M447 314l-90 52V263l90 51z" fill="#01BBBE"/><path d="M447 212v102l-90-51 90-51z" fill="#01BBBE"/><path d="M414.301 0v29.836l-.018.013-25.842-14.921L414.301 0zM447 108.5L357 160V57l90 51.5z" fill="#02D4D8"/><path d="M357.001 469.025V572L268 520.025l89.001-51z" fill="#A5161C"/><path d="M357 572l-89 51V520l89 52z" fill="#EF3239"/><path d="M357 572v103l-89-52 89-51zm90 51l-90 52V572l90 51z" fill="#01C3C7"/><path d="M447 623V520l-90 52 90 51z" fill="#0C78A3"/><path d="M447 520l-90 52V469l90 51z" fill="#0C78A3"/><path d="M447 314v103l-90-51 90-52z" fill="#EF4D29"/><path d="M447 417l-90 52V366l90 51z" fill="#EF4D29"/><path d="M447 417v103l-90-51 90-52z" fill="#01C3C7"/><path d="M357 366v103l-89-52 89-51z" fill="#EF4D29"/><path d="M178 160v103l-88-51 88-52z" fill="#FBCB86"/><path d="M268 314l-90 52V263l90 51zm-150.209.317l-41.583 24.009v-47.992l.036-.016 41.547 23.999z" fill="#F97211"/><path d="M117 168l-28 16v-32l28 16z" fill="#FBCB86"/><path d="M267.999 212L268 314l-90-51 89.999-51z" fill="#F97211"/><path d="M268 212l-90 51V160l90 52z" fill="#F7972A"/><path d="M178 469v103l-88-52 88-51z" fill="#F36246"/><path d="M268 623l-90 52V572l90 51zm-178.601.032L0 675V572l89.399 51.032z" fill="#EF3239"/><path d="M268 623V520l-90 52 90 51z" fill="#EF3239"/><path d="M268 520l-90 52V469l90 51z" fill="#EF3239"/><path d="M268 314v103l-90-51 90-52z" fill="#F7972A"/><path d="M268 417l-90 52V366l90 51z" fill="#F7972A"/><path d="M268 417v103l-90-51 90-52z" fill="#F97211"/><path d="M357 469.07L268 520V417l89 52.07z" fill="#A5161C"/><path d="M357.282 365.714L268 417V314l89.282 51.714z" fill="#F7972A"/></svg>