<svg width="419" height="464" fill="none" xmlns="http://www.w3.org/2000/svg"><path d="M89.001 360.475V257l89 52-89 51.475z" fill="#01C3C7"/><path d="M89 257l89-51v103l-89-52zm30 111.5l29.965-17.5.036.022V386L119 368.5z" fill="#0C78A3"/><path d="M89.001 257V154l89 52-89 51z" fill="#0C78A3"/><path d="M0 205.512L89 154v103L0 205.512z" fill="#01BBBE"/><path d="M0 411.738v-.157l89.064-51.407.067.043V463.19L0 411.738z" fill="#01C3C7"/><path d="M.006 205.813V103L89 154 .006 205.813z" fill="#EF3239"/><path d="M0 103l89-51v102L0 103zm89 51V52l89 51-89 51z" fill="#EF3239"/><path d="M267 154V51l89 52-89 51zm116.001-30V82.018l.036-.018 35.964 20.995-36 21.005z" fill="#F7972A"/><path d="M267 360V257l89 52-89 51z" fill="#FBCB86"/><path d="M177.622 205.878L267.001 154v103l-89.379-51.122z" fill="#F46B34"/><path d="M178.001 309V206l89 51-89 52z" fill="#F46B34"/><path d="M178.001 309l89-52v103l-89-51zm0-206v103l89-52-89-51z" fill="#F7972A"/><path d="M178 103l89-52v103l-89-51z" fill="#F7972A"/><path d="M178 103V0l89.261 51.386L178 103z" fill="#F97211"/><path d="M89 52l89-52v103L89 52z" fill="#A5161C"/><path d="M89 154l89-51v103l-89-52z" fill="#F7972A"/></svg>